<svg width="68" height="68" viewBox="0 0 68 68" fill="none" xmlns="http://www.w3.org/2000/svg">
<rect width="68" height="68" fill="#F26F53"/>
<path d="M11 19.8642C11 18.331 11.2844 16.8098 11.8531 15.3006C12.4219 13.7675 13.2513 12.402 14.3414 11.2042C15.4315 10.0064 16.7585 9.03623 18.3226 8.2936C19.8866 7.55098 21.6639 7.17967 23.6545 7.17967C26.0243 7.17967 28.0742 7.69471 29.8041 8.72481C31.5577 9.7549 32.8611 11.0964 33.7142 12.7494L29.2353 15.9115C28.951 15.2407 28.5837 14.6898 28.1334 14.2586C27.7068 13.8034 27.2329 13.4441 26.7115 13.1806C26.1902 12.8931 25.657 12.7014 25.112 12.6056C24.5669 12.4858 24.0337 12.426 23.5124 12.426C22.3986 12.426 21.427 12.6535 20.5976 13.1087C19.7681 13.5638 19.0809 14.1508 18.5359 14.8694C17.9908 15.5881 17.5879 16.4026 17.3273 17.3129C17.0666 18.2232 16.9363 19.1455 16.9363 20.0798C16.9363 21.0859 17.0903 22.0561 17.3984 22.9904C17.7064 23.9247 18.1448 24.7511 18.7136 25.4698C19.306 26.1885 20.0051 26.7634 20.8108 27.1946C21.6402 27.6018 22.5645 27.8055 23.5835 27.8055C24.1048 27.8055 24.638 27.7456 25.183 27.6258C25.7518 27.4821 26.285 27.2784 26.7826 27.0149C27.304 26.7275 27.7779 26.3681 28.2045 25.9369C28.6311 25.4818 28.9747 24.9308 29.2353 24.284L33.9986 27.1227C33.6194 28.057 33.0507 28.8955 32.2923 29.6381C31.5577 30.3807 30.7046 31.0036 29.733 31.5066C28.7614 32.0097 27.7305 32.393 26.6405 32.6565C25.5504 32.92 24.484 33.0518 23.4413 33.0518C21.6166 33.0518 19.934 32.6804 18.3937 31.9378C16.877 31.1712 15.5618 30.1651 14.448 28.9194C13.3579 27.6737 12.5048 26.2603 11.8887 24.6793C11.2962 23.0982 11 21.4932 11 19.8642Z" fill="white"/>
<path d="M52.5352 32.8362L50.8645 31.0395C49.8219 31.7582 48.7199 32.2972 47.5587 32.6565C46.3975 33.0158 45.2127 33.1955 44.0041 33.1955C42.6296 33.1955 41.3973 32.9799 40.3072 32.5487C39.2408 32.0935 38.3403 31.5066 37.6057 30.7879C36.8711 30.0453 36.3023 29.2069 35.8995 28.2726C35.5203 27.3383 35.3307 26.3681 35.3307 25.362C35.3307 24.5954 35.4374 23.8887 35.6507 23.2419C35.8639 22.5712 36.1483 21.9603 36.5038 21.4093C36.8829 20.8583 37.3095 20.3433 37.7834 19.8642C38.2574 19.3851 38.755 18.9419 39.2764 18.5346C38.4233 17.4806 37.819 16.5823 37.4635 15.8396C37.1081 15.0731 36.9303 14.2346 36.9303 13.3243C36.9303 12.3421 37.1081 11.4677 37.4635 10.7011C37.819 9.91061 38.3166 9.23985 38.9565 8.68887C39.5963 8.13789 40.3428 7.71867 41.1959 7.4312C42.0727 7.14373 43.0206 7 44.0396 7C44.9401 7 45.817 7.11978 46.6701 7.35933C47.5232 7.57494 48.2697 7.93427 48.9095 8.43734C49.573 8.91645 50.1062 9.52732 50.5091 10.2699C50.9119 10.9886 51.1134 11.851 51.1134 12.8572C51.1134 14.2226 50.7579 15.4324 50.047 16.4864C49.3361 17.5165 48.4118 18.4628 47.2744 19.3252L51.22 23.5653C51.5281 22.8467 51.7651 22.0681 51.9309 21.2297C52.1205 20.3672 52.2153 19.433 52.2153 18.4268H56.8008C56.7771 20.1996 56.5638 21.8046 56.161 23.2419C55.7818 24.6553 55.2486 25.9369 54.5614 27.0868L60 32.8362H52.5352ZM44.6084 28.7038C45.7222 28.7038 46.7767 28.3804 47.772 27.7336L42.76 22.3436C42.1438 22.8227 41.658 23.3138 41.3025 23.8169C40.9471 24.296 40.7693 24.823 40.7693 25.3979C40.7693 25.7812 40.8523 26.1765 41.0182 26.5837C41.1841 26.967 41.4329 27.3144 41.7646 27.6258C42.0964 27.9372 42.4993 28.2007 42.9732 28.4163C43.4472 28.608 43.9922 28.7038 44.6084 28.7038ZM42.0846 13.1087C42.0846 13.492 42.2031 13.8513 42.44 14.1867C42.677 14.4981 43.1036 14.9653 43.7197 15.5881C44.4543 15.109 44.9994 14.6778 45.3548 14.2945C45.7103 13.9112 45.888 13.456 45.888 12.929C45.888 12.402 45.7103 11.9828 45.3548 11.6713C45.0231 11.3599 44.5847 11.2042 44.0396 11.2042C43.4472 11.2042 42.9732 11.3839 42.6178 11.7432C42.2623 12.1026 42.0846 12.5577 42.0846 13.1087Z" fill="white"/>
<path d="M11 47.8124C11 46.2793 11.2844 44.7581 11.8531 43.2489C12.4219 41.7157 13.2513 40.3502 14.3414 39.1525C15.4315 37.9547 16.7585 36.9845 18.3226 36.2419C19.8866 35.4992 21.6639 35.1279 23.6545 35.1279C26.0243 35.1279 28.0742 35.643 29.8041 36.6731C31.5577 37.7031 32.8611 39.0447 33.7142 40.6976L29.2353 43.8597C28.951 43.189 28.5837 42.638 28.1334 42.2068C27.7068 41.7516 27.2329 41.3923 26.7115 41.1288C26.1902 40.8413 25.657 40.6497 25.112 40.5539C24.5669 40.4341 24.0337 40.3742 23.5124 40.3742C22.3986 40.3742 21.427 40.6018 20.5976 41.0569C19.7681 41.5121 19.0809 42.099 18.5359 42.8177C17.9908 43.5363 17.5879 44.3508 17.3273 45.2612C17.0666 46.1715 16.9363 47.0938 16.9363 48.028C16.9363 49.0342 17.0903 50.0044 17.3984 50.9386C17.7064 51.8729 18.1448 52.6994 18.7136 53.418C19.306 54.1367 20.0051 54.7117 20.8108 55.1429C21.6402 55.5501 22.5645 55.7537 23.5835 55.7537C24.1048 55.7537 24.638 55.6938 25.183 55.5741C25.7518 55.4303 26.285 55.2267 26.7826 54.9632C27.304 54.6757 27.7779 54.3164 28.2045 53.8852C28.6311 53.43 28.9747 52.879 29.2353 52.2322L33.9986 55.071C33.6194 56.0053 33.0507 56.8437 32.2923 57.5863C31.5577 58.329 30.7046 58.9518 29.733 59.4549C28.7614 59.9579 27.7305 60.3412 26.6405 60.6047C25.5504 60.8682 24.484 61 23.4413 61C21.6166 61 19.934 60.6287 18.3937 59.8861C16.877 59.1195 15.5618 58.1134 14.448 56.8677C13.3579 55.622 12.5048 54.2086 11.8887 52.6275C11.2962 51.0464 11 49.4414 11 47.8124Z" fill="white"/>
<path d="M47.2091 61C45.337 61 43.6307 60.6287 42.0904 59.8861C40.5501 59.1434 39.2348 58.1732 38.1447 56.9755C37.0546 55.7537 36.2015 54.3643 35.5854 52.8072C34.993 51.2501 34.6967 49.645 34.6967 47.9921C34.6967 46.3152 35.0048 44.6982 35.6209 43.1411C36.2608 41.584 37.1376 40.2185 38.2514 39.0447C39.3889 37.8469 40.7278 36.9006 42.2681 36.2059C43.8085 35.4872 45.491 35.1279 47.3157 35.1279C49.1878 35.1279 50.8941 35.4992 52.4344 36.2419C53.9748 36.9845 55.29 37.9667 56.3801 39.1884C57.4702 40.4101 58.3114 41.7996 58.9039 43.3567C59.4963 44.9138 59.7925 46.4949 59.7925 48.0999C59.7925 49.7768 59.4726 51.3938 58.8328 52.9509C58.2167 54.508 57.3517 55.8855 56.2379 57.0833C55.1241 58.2571 53.797 59.2033 52.2567 59.922C50.7163 60.6407 49.0338 61 47.2091 61ZM40.633 48.064C40.633 49.0461 40.7752 50.0044 41.0596 50.9386C41.3439 51.8489 41.7586 52.6634 42.3037 53.3821C42.8724 54.1008 43.5715 54.6757 44.4009 55.1069C45.2303 55.5381 46.1782 55.7537 47.2446 55.7537C48.3584 55.7537 49.33 55.5261 50.1595 55.071C50.9889 54.6158 51.6761 54.0289 52.2211 53.3102C52.7662 52.5676 53.1691 51.7411 53.4297 50.8308C53.7141 49.8966 53.8563 48.9503 53.8563 47.9921C53.8563 47.0099 53.7141 46.0637 53.4297 45.1533C53.1454 44.2191 52.7188 43.4046 52.1501 42.7099C51.5813 41.9912 50.8822 41.4282 50.0528 41.021C49.2471 40.5898 48.311 40.3742 47.2446 40.3742C46.1309 40.3742 45.1592 40.6018 44.3298 41.0569C43.5241 41.4881 42.8369 42.0631 42.2681 42.7817C41.7231 43.5004 41.3084 44.3269 41.024 45.2612C40.7633 46.1715 40.633 47.1057 40.633 48.064Z" fill="white"/>
</svg>
