<svg xmlns="http://www.w3.org/2000/svg" viewBox="0 0 232.62 124.73"><defs><style>.cls-1{fill:#1a1a1a;}</style></defs><g id="Layer_2" data-name="Layer 2"><g id="svg887"><g id="layer1"><g id="path835-2-2-2-4-6-8-0-0-0-0-4-0-3-9"><path class="cls-1" d="M146.48,124.73a60.52,60.52,0,0,1-16.34-2.24,66.82,66.82,0,0,1-26.95-15.28C91.63,115.59,79.64,121,67.56,123.37c-14.27,2.77-28.61,1-40.39-4.9-13.19-6.64-22.92-18.61-26-32A42.45,42.45,0,0,1,6,54.87,39.51,39.51,0,0,1,32.58,36.64,35.1,35.1,0,0,1,56.39,40.8,31,31,0,0,1,71,60.6a28.34,28.34,0,0,1-5.93,24.29,26.09,26.09,0,0,1-10.74,7.42,24.83,24.83,0,0,1-13.16,1.07,22,22,0,0,1-13.44-8.17,19.07,19.07,0,0,1-3.42-7.67,17.61,17.61,0,0,1,.46-8.66A17,17,0,0,1,36.59,57.62,17.18,17.18,0,0,1,45,57.56a17,17,0,0,1,7.41,4L45,69.64a6,6,0,0,0-5.56-1.38,6,6,0,0,0-2.57,1.44,5.85,5.85,0,0,0-1.57,2.51,6.58,6.58,0,0,0-.16,3.22,7.91,7.91,0,0,0,1.45,3.2,10.88,10.88,0,0,0,6.69,4A14,14,0,0,0,50.57,82a15,15,0,0,0,6.18-4.28A17.09,17.09,0,0,0,60.26,63a20.29,20.29,0,0,0-9.47-12.72,24.38,24.38,0,0,0-16.34-2.79,28.4,28.4,0,0,0-19,13.12A31.45,31.45,0,0,0,11.83,84c2.4,10.27,10,19.51,20.28,24.7,9.62,4.84,21.46,6.24,33.35,3.92,10.13-2,20.28-6.5,30.19-13.5A80.52,80.52,0,0,1,79.89,63.34a70.24,70.24,0,0,1-.06-26.1A50.27,50.27,0,0,1,91.67,13.16,39.63,39.63,0,0,1,116,.26a33.47,33.47,0,0,1,26.79,8.4,34.24,34.24,0,0,1,9.92,18.49,44.46,44.46,0,0,1-1.09,20.23C148,60,140.06,70.4,132,79.77a197.82,197.82,0,0,1-20.06,20.49,55.34,55.34,0,0,0,21.2,11.64,48.08,48.08,0,0,0,33.1-2.44,41.45,41.45,0,0,0,21.64-24.13,82,82,0,0,0,2-8.27c.34-1.63.69-3.29,1.09-5l-.48-.51c-1.07-1.12-2.07-2.18-3.12-3.2a28.68,28.68,0,0,0-7.44-5.68,14.68,14.68,0,0,0-6.07-1.53,11.24,11.24,0,0,0-5.59,1.33,8.67,8.67,0,0,0-3.63,3.77,6.93,6.93,0,0,0-.51,4.69A6.2,6.2,0,0,0,166,74a6.12,6.12,0,0,0,3.22,1.45,6.08,6.08,0,0,0,6.06-3l9.58,5.41a17.08,17.08,0,0,1-31.37-4,17.83,17.83,0,0,1,1.22-12.27,19.7,19.7,0,0,1,8.21-8.63,21.9,21.9,0,0,1,11.14-2.72,25.74,25.74,0,0,1,10.69,2.65,39.78,39.78,0,0,1,10.34,7.73l.11.11a29.23,29.23,0,0,1,2.6-3.83A21.84,21.84,0,0,1,208,49.64a19.21,19.21,0,0,1,13.66.73,18.76,18.76,0,0,1,9.6,9.9,18.35,18.35,0,0,1,0,13.89,18,18,0,0,1-10,9.82,20.68,20.68,0,0,1-14.9-.25,29.3,29.3,0,0,1-6-3.18,80.41,80.41,0,0,1-2.06,8.15,52.66,52.66,0,0,1-27.42,30.71A57.39,57.39,0,0,1,146.48,124.73ZM120.18,11a25.46,25.46,0,0,0-2.89.17,29.09,29.09,0,0,0-17.5,9.41,39.23,39.23,0,0,0-9.17,18.83,59.15,59.15,0,0,0,.1,22,69.41,69.41,0,0,0,13.6,30.89,185.77,185.77,0,0,0,19.33-19.7C130.9,64.18,138,54.94,141,44.4a33.39,33.39,0,0,0,.88-15.17,23.31,23.31,0,0,0-6.64-12.55A22,22,0,0,0,120.18,11Zm83.26,58a22.3,22.3,0,0,0,6.87,4.49,9.84,9.84,0,0,0,6.95.29A7,7,0,0,0,221.09,70a7.37,7.37,0,0,0,0-5.52,7.78,7.78,0,0,0-3.93-4,8.11,8.11,0,0,0-5.76-.3,11.18,11.18,0,0,0-5,3.67A20,20,0,0,0,203.44,69Z"/></g></g></g></g></svg>