<?xml version="1.0" encoding="UTF-8" standalone="no"?>
<svg
   xmlns:dc="http://purl.org/dc/elements/1.1/"
   xmlns:cc="http://creativecommons.org/ns#"
   xmlns:rdf="http://www.w3.org/1999/02/22-rdf-syntax-ns#"
   xmlns:svg="http://www.w3.org/2000/svg"
   xmlns="http://www.w3.org/2000/svg"
   xmlns:sodipodi="http://sodipodi.sourceforge.net/DTD/sodipodi-0.dtd"
   xmlns:inkscape="http://www.inkscape.org/namespaces/inkscape"
   width="82.953331mm"
   height="44.896797mm"
   viewBox="0 0 82.953333 44.896798"
   version="1.1"
   id="svg887"
   inkscape:version="1.0 (4035a4f, 2020-05-01)"
   sodipodi:docname="logo2.svg">
  <defs
     id="defs881">
    <inkscape:path-effect
       effect="spiro"
       id="path-effect837-0-5-2-6-6-2-6-5-3-7-9-7-0-0-44-7"
       is_visible="true"
       lpeversion="1" />
  </defs>
  <sodipodi:namedview
     id="base"
     pagecolor="#ffffff"
     bordercolor="#666666"
     borderopacity="1.0"
     inkscape:pageopacity="0.0"
     inkscape:pageshadow="2"
     inkscape:zoom="1"
     inkscape:cx="30.649515"
     inkscape:cy="169.80311"
     inkscape:document-units="mm"
     inkscape:current-layer="layer1"
     inkscape:document-rotation="0"
     showgrid="false"
     inkscape:window-width="1440"
     inkscape:window-height="775"
     inkscape:window-x="0"
     inkscape:window-y="23"
     inkscape:window-maximized="0" />
  <metadata
     id="metadata884">
    <rdf:RDF>
      <cc:Work
         rdf:about="">
        <dc:format>image/svg+xml</dc:format>
        <dc:type
           rdf:resource="http://purl.org/dc/dcmitype/StillImage" />
        <dc:title />
      </cc:Work>
    </rdf:RDF>
  </metadata>
  <g
     inkscape:label="Layer 1"
     inkscape:groupmode="layer"
     id="layer1"
     transform="translate(-103.52567,-66.560077)">
    <path
       transform="matrix(6.0418054e-4,0,0,6.0418054e-4,128.86208,81.832605)"
       inkscape:path-effect="#path-effect837-0-5-2-6-6-2-6-5-3-7-9-7-0-0-44-7"
       inkscape:original-d="M 63952.752,19309.161 C 64228.997,18743.235 52425.134,21801.902 51537.193,17725.434 50389.849,12458.071 59885.394,9292.0277 65275.342,9192.1532 73548.149,9038.86 80590.178,26930.76 86832.197,21499.367 90624.669,18199.408 86258.05,7737.1328 81236.738,7494.2239 74203.957,7154.009 98288.797,37248.239 71543.025,26261.583 61470.273,21767.73 8917.8248,21013.89 8608.4378,11871.551 8327.9018,3581.7822 27446.672,-23959.178 39947.839,-17146.614 50967.91,-11141.179 49181.578,21687.68 33426.503,19934.879 23789.837,18469.296 -25193.745,45482.318 -37421.102,25202.188 -42537.818,16715.672 -31370.568,-1824.6408 -21632.601,12.132286 -12693.39,1698.2442 -9031.9599,24828.499 -16558.54,26826.795 c -2715.793,721.039 -6511.746,-6159.736 -7116.504,-10181.975 -604.758,-4022.239 11366.017,-2345.777 10904.901,-2881.35"
       style="fill:none;fill-opacity:1;fill-rule:nonzero;stroke:#1a1a1a;stroke-width:7882.58;stroke-linecap:butt;stroke-linejoin:miter;stroke-miterlimit:4;stroke-dasharray:none;stroke-opacity:1;paint-order:stroke fill markers"
       d="m 63952.752,19309.161 c -655.631,1160.811 -1663.084,2119.835 -2854.762,2717.528 -1191.679,597.694 -2562.791,831.656 -3885.243,662.964 -1322.451,-168.692 -2590.925,-739.359 -3594.402,-1617.066 -1003.476,-877.707 -1737.92,-2058.927 -2081.152,-3347.153 -436.342,-1637.688 -231.327,-3425.394 500.783,-4953.933 732.11,-1528.539 1975.635,-2794.7289 3456.822,-3618.4411 1481.187,-823.7123 3191.103,-1211.0226 4885.63,-1179.5017 1694.527,31.5208 3371.97,474.9161 4894.914,1218.595 1955.604,954.9538 3640.82,2384.3538 5190.34,3912.5258 1549.519,1528.173 2986.312,3169.912 4581.071,4650.812 1594.759,1480.9 3372.714,2812.342 5406.388,3587.257 2033.673,774.915 4353.627,952.836 6379.056,156.619 1802.587,-708.615 3286.373,-2181.039 4027.148,-3970.65 740.774,-1789.612 733.774,-3871.682 -0.656,-5663.907 -734.429,-1792.224 -2183.498,-3276.0423 -3949.713,-4070.9898 -1766.214,-794.9476 -3829.844,-897.1225 -5672.238,-299.5963 -1754.082,568.8846 -3276.666,1741.2688 -4436.414,3174.9411 -1159.748,1433.673 -1973.949,3121.412 -2571.943,4865.784 -1195.987,3488.745 -1554.098,7216.366 -2685.356,10726.634 -2258.954,7009.487 -7659.228,12871.394 -14320.117,16012.784 -6660.89,3141.389 -14476.485,3604.674 -21565.771,1610.232 C 28567.85,41890.157 22227.094,37510.414 17567.506,31807.431 12907.919,26104.448 9904.8981,19121.032 8608.4378,11871.551 7779.7824,7237.9181 7634.8841,2448.1555 8561.4451,-2166.8969 c 926.561,-4615.0524 2957.4379,-9053.1771 6131.5369,-12529.1401 3174.1,-3475.962 7525.558,-5939.661 12197.685,-6512.769 4672.127,-573.108 9624.097,841.754 13057.172,4062.192 2538.601,2381.366 4176.363,5645.051 4833.698,9063.1363 657.335,3418.0857 366.111,6981.6223 -575.505,10332.5563 C 42322.8,8950.9464 37972.188,14662.466 33426.503,19934.879 28620.767,25508.919 23457.972,30828.127 17528.206,35187.358 11598.44,39546.59 4856.8193,42933.302 -2367.675,44337.475 c -7224.4943,1404.173 -14954.874,733.943 -21527.884,-2576.73 -6573.01,-3310.674 -11854.444,-9391.099 -13525.543,-16558.557 -1259.835,-5403.517 -409.276,-11303.776 2485.419,-16037.2655 2894.695,-4733.4895 7835.592,-8208.4719 13303.082,-9152.790214 3989.911,-689.118096 8236.013,-26.776446 11722.2933,2032.380614 3486.2799,2059.1571 6152.0636,5537.3348 7031.0655,9489.7561 879.0018,3952.42 -107.7791,8321.021 -2757.8432,11382.301 -1325.032,1530.64 -3038.1211,2727.135 -4940.9956,3418.247 -1902.875,691.113 -3992.014,872.314 -5980.459,491.978 -2297.834,-439.514 -4476.842,-1663.104 -5875.775,-3538.258 -699.467,-937.576 -1198.758,-2027.643 -1423.096,-3175.674 -224.338,-1148.032 -170.803,-2352.886 182.367,-3468.043 337.946,-1067.088 949.359,-2046.332 1759.754,-2818.435 810.395,-772.103 1818.065,-1335.439 2900.248,-1621.379 1082.184,-285.941 2236.602,-293.883 3322.618,-22.859 1086.015,271.024 2101.34,820.443 2922.281,1581.323"
       id="path835-2-2-2-4-6-8-0-0-0-0-4-0-3-9"
       inkscape:connector-curvature="0"
       sodipodi:nodetypes="caaaacsacaassc" />
  </g>
</svg>
